# xmcd
#
# Track frame offsets:
# 150
# 28791
# 59873
# 86125
# 117477
# 146577
# 177585
# 208450
#
# Disc length: 3184 seconds
#
# Revision: 0
# Processed by: cddbd v1.4PL0 Copyright (c) Steve Scherf et al.
# Submitted via: Audion 3.0.2 (http://www.panic.com/audion/)
#
DISCID=860c6e08
DTITLE=dddd - chakk
DYEAR=1900
DGENRE=
TTITLE0=ss
TTITLE1=s
TTITLE2=x
TTITLE3=xz
TTITLE4=X
TTITLE5=z
TTITLE6=a
TTITLE7=X
EXTD=
EXTT0=
EXTT1=
EXTT2=
EXTT3=
EXTT4=
EXTT5=
EXTT6=
EXTT7=
PLAYORDER=
